# xmcd CD database file
#
# Track frame offsets:
#	150
#	14770
#	29190
#	44435
#	59102
#	72514
#	85979
#	101138
#	115900
#	130696
#	143580
#	158404
#	170861
#	185582
#	200691
#	215575
#	231034
#	244996
#	259751
#	273226
#	287602
#	300667
#	315412
#	329879
#
# Disc length: 4594 seconds
#
# Revision: 0
# Processed by: cddbd v1.5PL3 Copyright (c) Steve Scherf et al.
# Submitted via: CDex 1.51
#
DISCID=7b11f018
DTITLE=Billie Holiday - Complete Original American Decca Recordings [CD2]
DYEAR=2001
DGENRE=Jazz
TTITLE0=Easy Living
TTITLE1=Solitude
TTITLE2=Weep No More
TTITLE3=Girls Were Made To Take Care Of Boys
TTITLE4=(I Love You) Porgy
TTITLE5=My Man (Mon Homme)
TTITLE6=Ain't Nobody's Business If I Do
TTITLE7=Baby Get Lost
TTITLE8=Keeps On A-Rainin'
TTITLE9=Them There Eyes
TTITLE10=Do Your Duty
TTITLE11=Gimmie A Pigfoot And A Bottle Of Beer
TTITLE12=You Can't Lose A Broken Heart
TTITLE13=My Sweet Hunk O'Trash
TTITLE14=Now Or Never
TTITLE15=You're My Thrill
TTITLE16=Crazy He Calls Me
TTITLE17=Please Tell Me Now
TTITLE18=Somebody's On My Mind
TTITLE19=God Bless The Child
TTITLE20=This Is Heaven To Me
TTITLE21=Solitude
TTITLE22=My Man (Mon Homme)
TTITLE23=Ain't Nobody's Business If I Do
EXTD=YEAR: 2001
EXTT0=
EXTT1=
EXTT2=
EXTT3=
EXTT4=
EXTT5=
EXTT6=
EXTT7=
EXTT8=
EXTT9=
EXTT10=
EXTT11=
EXTT12=
EXTT13=
EXTT14=
EXTT15=
EXTT16=
EXTT17=
EXTT18=
EXTT19=
EXTT20=
EXTT21=
EXTT22=
EXTT23=
PLAYORDER=
